{
  "accessors": [
    {
      "bufferView": 2,
      "componentType": 5126,
      "count": 1649,
      "max": [
        0.21166738867759705,
        -0.13175682723522186,
        0.02286262810230255
      ],
      "min": [
        0.023130543529987335,
        -0.320293664932251,
        -0.16567420959472656
      ],
      "type": "VEC3"
    },
    {
      "bufferView": 2,
      "byteOffset": 19788,
      "componentType": 5126,
      "count": 1649,
      "max": [
        1.0,
        1.0,
        1.0
      ],
      "min": [
        -1.0,
        -1.0,
        -1.0
      ],
      "type": "VEC3"
    },
    {
      "bufferView": 1,
      "componentType": 5126,
      "count": 1649,
      "max": [
        1.0,
        1.0
      ],
      "min": [
        0.0,
        0.0
      ],
      "type": "VEC2"
    },
    {
      "bufferView": 0,
      "componentType": 5125,
      "count": 9216,
      "type": "SCALAR"
    },
    {
      "bufferView": 2,
      "byteOffset": 39576,
      "componentType": 5126,
      "count": 1649,
      "max": [
        -0.023130539804697037,
        -0.13175682723522186,
        0.02286262810230255
      ],
      "min": [
        -0.21166738867759705,
        -0.320293664932251,
        -0.16567420959472656
      ],
      "type": "VEC3"
    },
    {
      "bufferView": 2,
      "byteOffset": 59364,
      "componentType": 5126,
      "count": 1649,
      "max": [
        1.0,
        1.0,
        1.0
      ],
      "min": [
        -1.0,
        -1.0,
        -1.0
      ],
      "type": "VEC3"
    },
    {
      "bufferView": 1,
      "byteOffset": 13192,
      "componentType": 5126,
      "count": 1649,
      "max": [
        1.0,
        1.0
      ],
      "min": [
        0.0,
        0.0
      ],
      "type": "VEC2"
    },
    {
      "bufferView": 0,
      "byteOffset": 36864,
      "componentType": 5125,
      "count": 9216,
      "type": "SCALAR"
    },
    {
      "bufferView": 2,
      "byteOffset": 79152,
      "componentType": 5126,
      "count": 65532,
      "max": [
        1.1108137369155884,
        0.9236147999763489,
        0.4385526776313782
      ],
      "min": [
        -0.9212645888328552,
        -0.6202948093414307,
        -2.426856756210327
      ],
      "type": "VEC3"
    },
    {
      "bufferView": 2,
      "byteOffset": 865536,
      "componentType": 5126,
      "count": 65532,
      "max": [
        0.9999980330467224,
        0.9999994039535522,
        0.999999463558197
      ],
      "min": [
        -0.9999989867210388,
        -0.9999997019767761,
        -1.0
      ],
      "type": "VEC3"
    },
    {
      "bufferView": 0,
      "byteOffset": 73728,
      "componentType": 5125,
      "count": 358992,
      "type": "SCALAR"
    },
    {
      "bufferView": 2,
      "byteOffset": 1651920,
      "componentType": 5126,
      "count": 17530,
      "max": [
        1.1102933883666992,
        0.9163132309913635,
        0.4385526776313782
      ],
      "min": [
        -0.8917316794395447,
        -0.6181519627571106,
        -2.4267001152038574
      ],
      "type": "VEC3"
    },
    {
      "bufferView": 2,
      "byteOffset": 1862280,
      "componentType": 5126,
      "count": 17530,
      "max": [
        0.9999668002128601,
        0.9999947547912598,
        0.9999897480010986
      ],
      "min": [
        -0.9999989867210388,
        -0.9999924898147583,
        -0.9999966621398926
      ],
      "type": "VEC3"
    },
    {
      "bufferView": 0,
      "byteOffset": 1509696,
      "componentType": 5125,
      "count": 60993,
      "type": "SCALAR"
    }
  ],
  "asset": {
    "extras": {
      "author": "proudforestowner (https://sketchfab.com/forestowner)",
      "license": "CC-BY-4.0 (http://creativecommons.org/licenses/by/4.0/)",
      "source": "https://sketchfab.com/3d-models/artemis-sculpture-study-df54063caae7424f99c23b8b33b07a03",
      "title": "Artemis Sculpture Study"
    },
    "generator": "Sketchfab-15.66.0",
    "version": "2.0"
  },
  "bufferViews": [
    {
      "buffer": 0,
      "byteLength": 1753668,
      "name": "floatBufferViews",
      "target": 34963
    },
    {
      "buffer": 0,
      "byteLength": 26384,
      "byteOffset": 1753668,
      "byteStride": 8,
      "name": "floatBufferViews",
      "target": 34962
    },
    {
      "buffer": 0,
      "byteLength": 2072640,
      "byteOffset": 1780052,
      "byteStride": 12,
      "name": "floatBufferViews",
      "target": 34962
    }
  ],
  "buffers": [
    {
      "byteLength": 3852692,
      "uri": "scene.bin"
    }
  ],
  "extensionsUsed": [
    "KHR_materials_clearcoat"
  ],
  "materials": [
    {
      "doubleSided": true,
      "name": "material",
      "pbrMetallicRoughness": {
        "metallicFactor": 0.0,
        "roughnessFactor": 0.6
      }
    },
    {
      "doubleSided": true,
      "name": "Eye_1",
      "pbrMetallicRoughness": {
        "metallicFactor": 0.0,
        "roughnessFactor": 0.6
      }
    },
    {
      "doubleSided": true,
      "extensions": {
        "KHR_materials_clearcoat": {
          "clearcoatFactor": 1.0,
          "clearcoatRoughnessFactor": 0.04
        }
      },
      "name": "Sphere_1",
      "pbrMetallicRoughness": {
        "metallicFactor": 0.0,
        "roughnessFactor": 0.35901162790697677
      }
    }
  ],
  "meshes": [
    {
      "name": "Object_0",
      "primitives": [
        {
          "attributes": {
            "NORMAL": 1,
            "POSITION": 0,
            "TEXCOORD_0": 2
          },
          "indices": 3,
          "material": 0,
          "mode": 4
        }
      ]
    },
    {
      "name": "Object_1",
      "primitives": [
        {
          "attributes": {
            "NORMAL": 5,
            "POSITION": 4,
            "TEXCOORD_0": 6
          },
          "indices": 7,
          "material": 1,
          "mode": 4
        }
      ]
    },
    {
      "name": "Object_2",
      "primitives": [
        {
          "attributes": {
            "NORMAL": 9,
            "POSITION": 8
          },
          "indices": 10,
          "material": 2,
          "mode": 4
        }
      ]
    },
    {
      "name": "Object_3",
      "primitives": [
        {
          "attributes": {
            "NORMAL": 12,
            "POSITION": 11
          },
          "indices": 13,
          "material": 2,
          "mode": 4
        }
      ]
    }
  ],
  "nodes": [
    {
      "children": [
        1
      ],
      "matrix": [
        0.3921058177947998,
        0.0,
        0.0,
        0.0,
        0.0,
        8.706498140105263e-17,
        -0.3921058177947998,
        0.0,
        0.0,
        0.3921058177947998,
        8.706498140105263e-17,
        0.0,
        0.0,
        0.0,
        0.0,
        1.0
      ],
      "name": "Sketchfab_model"
    },
    {
      "children": [
        2,
        3,
        4,
        5
      ],
      "name": "Well .obj.cleaner.materialmerger.gles"
    },
    {
      "mesh": 0,
      "name": "Object_2"
    },
    {
      "mesh": 1,
      "name": "Object_3"
    },
    {
      "mesh": 2,
      "name": "Object_4"
    },
    {
      "mesh": 3,
      "name": "Object_5"
    }
  ],
  "scene": 0,
  "scenes": [
    {
      "name": "Sketchfab_Scene",
      "nodes": [
        0
      ]
    }
  ]
}
