<svg id="Layer_1" data-name="Layer 1" xmlns="http://www.w3.org/2000/svg" viewBox="0 0 877.56 425.99"><title>SanLogo_FullName_Black</title><path d="M160.23,198.81V147.93H107.47v50.88H81V81h26.47v45.41h52.76V81h26.46V198.81Z"/><path d="M290.85,170.12c-2.22,20.66-18.44,30.74-43.54,30.74-26.63,0-44.56-15.54-44.56-47.3,0-28.17,16.73-47.29,44.39-47.29C277,106.27,290,124,290,147.93v11.95H229.22c.51,15.2,8,21.85,19.29,21.85,9.73,0,17.41-3.24,18.61-14.34Zm-61.12-28.34h34.32v-.68c0-8.71-4.95-16-16.74-16C236,125.05,230.58,132.05,229.73,141.78Z"/><path d="M306.4,198.81V81H332V198.81Z"/><path d="M352.84,198.81V81h25.61V198.81Z"/><path d="M440.26,200.86c-29.2,0-46.1-17.08-46.1-47.3,0-30.39,16.9-47.29,46.1-47.29s46.1,16.9,46.1,47.29C486.36,183.78,469.46,200.86,440.26,200.86Zm0-19.13c13.83,0,20-10.41,20-28.17,0-17.93-6.15-28.17-20-28.17s-20,10.24-20,28.17C420.29,171.32,426.43,181.73,440.26,181.73Z"/><path d="M134.43,347C98,347,77.66,325.33,77.66,285.83,77.66,247,97.32,225,133.75,225c28.22,0,50.11,9.75,52.84,40.69l-25.31,3.94c-1.2-12-9.75-23.09-27.19-23.09-19.49,0-29.41,14.71-29.41,39.34s10.43,39.67,29.93,39.67c17.44,0,26.16-10.43,27.7-24.12l25.13,3.43c-2.39,29.75-25,42.23-53.18,42.23ZM228,227v37.62c6.15-8.38,16.25-12.31,26.34-12.31,18.47,0,32.31,10.77,32.31,32.65v60H261.05V286.84c0-9.56-4.45-15-13.69-15-12.14,0-19.32,9.91-19.32,22.73V345H202.39V227ZM389.7,316.27C387.47,337,371.23,347,346.09,347c-26.68,0-44.64-15.55-44.64-47.37,0-28.21,16.77-47.36,44.47-47.36,29.92,0,42.92,17.78,42.92,41.72v12H328c.51,15.22,8,21.89,19.32,21.89,9.75,0,17.45-3.24,18.65-14.37Zm-61.23-28.4h34.38v-.68c0-8.71-5-16.07-16.76-16.07C334.8,271.12,329.33,278.13,328.47,287.87Zm72.74-6.15c0-20.36,18.47-29.41,37.62-29.41,23.59,0,38,9.57,38,28.56l-20.52,3.41h-1.2c-.17-9.74-6.15-13.67-16.07-13.67-6.33,0-11.8,3.24-11.8,9.06,0,16.42,53-1.19,53,37.28,0,21.37-21,30.09-40.19,30.09-20,0-39.67-5.29-39.67-26.16l21.21-4.28h1.36c0,10.26,9.41,12.49,16.42,12.49,8.9,0,14.37-3.59,14.37-9.41C453.71,302.41,401.21,322.07,401.21,281.72ZM520.78,227v37.62c6.15-8.38,16.25-12.31,26.34-12.31,18.47,0,32.32,10.77,32.32,32.65v60H553.79V286.84c0-9.56-4.45-15-13.68-15-12.14,0-19.33,9.91-19.33,22.73V345H495.13V227Zm104.88,18.46H598.3V227h27.36ZM624.81,345H599.16V254.36h25.65Zm76.47-91.66v21.89h-2.4C683,275.22,671,282.75,671,304v41H645.36V254.36h25.13v17.1H671c4.61-15,16.07-18.13,28.39-18.13Zm95.28,62.94C794.34,337,778.09,347,753,347c-26.68,0-44.63-15.55-44.63-47.37,0-28.21,16.76-47.36,44.47-47.36,29.92,0,42.92,17.78,42.92,41.72v12H734.83c.51,15.22,8,21.89,19.32,21.89,9.75,0,17.45-3.24,18.64-14.37Zm-61.22-28.4h34.37v-.68c0-8.71-5-16.07-16.76-16.07C741.67,271.12,736.19,278.13,735.34,287.87Z"/></svg>